<mxfile host="app.diagrams.net" modified="2024-02-02T06:57:25.991Z" agent="Mozilla/5.0 (Windows NT 10.0; Win64; x64) AppleWebKit/537.36 (KHTML, like Gecko) Chrome/121.0.0.0 Safari/537.36" version="23.1.1" etag="BC3aDu-C5fkAP1nchbyw" type="github">
  <diagram name="第 1 页" id="TEinfP70u1qMm8e9KUNf">
    <mxGraphModel>
      <root>
        <mxCell id="0" />
        <mxCell id="1" parent="0" />
      </root>
    </mxGraphModel>
  </diagram>
</mxfile>
